Coordinates
version=1
nRows=16
nColumns=40
inDegrees=yes

Units are S.I. units (second, meters, Newtons, ...)
Angles are in degrees.

endheader
time	pelvis_tilt	pelvis_list	pelvis_rotation	pelvis_tx	pelvis_ty	pelvis_tz	hip_flexion_r	hip_adduction_r	hip_rotation_r	knee_angle_r	knee_angle_r_beta	ankle_angle_r	subtalar_angle_r	mtp_angle_r	hip_flexion_l	hip_adduction_l	hip_rotation_l	knee_angle_l	knee_angle_l_beta	ankle_angle_l	subtalar_angle_l	mtp_angle_l	lumbar_extension	lumbar_bending	lumbar_rotation	arm_flex_r	arm_add_r	arm_rot_r	elbow_flex_r	pro_sup_r	wrist_flex_r	wrist_dev_r	arm_flex_l	arm_add_l	arm_rot_l	elbow_flex_l	pro_sup_l	wrist_flex_l	wrist_dev_l
      6.18042857	     -2.94693381	     -4.80036651	      4.69967052	      1.03372134	      0.93131167	      0.50834807	      8.13368139	      3.23642851	    -14.48765396	     14.82454286	     14.82454286	     11.19372948	     -2.70514486	     -5.87169297	     33.55522183	    -12.70982895	     -0.34107571	     44.95086798	     44.95086798	     11.07882768	    -18.98691986	     17.10388108	     -9.86733186	      5.40253275	      2.79083997	     31.45611972	    -20.02476701	     -7.55413631	     85.03450101	     44.66978106	      0.00000000	      0.00000000	     -1.65218440	     -7.75353929	     -3.26579097	     24.21927475	     45.71571770	      0.00000000	      0.00000000
      6.19335714	     -3.03323927	     -4.76685241	      5.09889255	      1.03332650	      0.93113365	      0.50764490	      7.73748726	      3.17006695	    -14.93171267	     14.58591438	     14.58591438	     11.40173038	     -2.39897418	     -6.17024178	     33.58607663	    -12.10200649	     -0.13416592	     41.60566523	     41.60566523	     10.58489282	    -18.76435296	     15.67284387	    -10.03266715	      5.43336348	      3.43332807	     31.29756801	    -20.50551800	     -8.46323156	     90.37275915	     44.56348936	      0.00000000	      0.00000000	     -2.45349588	     -7.57653311	     -2.38230443	     24.34899853	     45.54072301	      0.00000000	      0.00000000
      6.20628571	     -3.18174474	     -4.62693331	      5.44875983	      1.03282268	      0.93093744	      0.50669256	      7.43336150	      3.00303180	    -15.10119630	     14.38787129	     14.38787129	     11.60211173	     -2.48746595	     -6.21904117	     33.63096956	    -11.27884210	      0.31162867	     38.43007041	     38.43007041	     10.55714972	    -18.33337944	     15.63804984	     -9.97786309	      5.30866274	      3.39426759	     32.65134286	    -20.25116989	     -8.70001584	     92.01548004	     44.53216391	      0.00000000	      0.00000000	     -3.34592083	     -7.34037727	     -2.12334654	     23.91294704	     45.48034195	      0.00000000	      0.00000000
      6.21921429	     -3.33326090	     -4.58721232	      5.79407946	      1.03240608	      0.93055986	      0.50564517	      7.12333957	      2.90143550	    -15.52799354	     14.18872558	     14.18872558	     11.84706954	     -2.15202530	     -6.41339287	     33.56524230	    -10.59793800	      0.80812580	     35.20919558	     35.20919558	      9.59439943	    -17.75870510	     12.93642083	    -10.00247986	      5.29611203	      3.89208957	     33.12430787	    -20.54382736	     -9.41833093	     95.38641303	     44.50717365	      0.00000000	      0.00000000	     -4.08969852	     -7.20951420	     -0.86318264	     24.05307870	     45.25207839	      0.00000000	      0.00000000
      6.23214286	     -3.52364758	     -4.51203586	      6.10035511	      1.03196418	      0.93016577	      0.50449940	      6.86934339	      2.78863771	    -15.68927724	     14.00073226	     14.00073226	     12.05745521	     -2.21569060	     -6.45400081	     33.60968760	     -9.89754183	      1.38460492	     32.46069316	     32.46069316	      9.78655638	    -16.59155442	     12.96130715	     -9.87717892	      5.21552285	      3.90502481	     34.35830419	    -20.37787050	     -9.47767592	     96.57374589	     44.48250729	      0.00000000	      0.00000000	     -4.84419698	     -7.00431000	     -0.70985254	     23.76286756	     45.21407797	      0.00000000	      0.00000000
      6.24507143	     -3.70140351	     -4.53729368	      6.42288760	      1.03159518	      0.92969465	      0.50324209	      6.61005696	      2.77099622	    -15.93942123	     13.82864732	     13.82864732	     12.29310857	     -2.20995238	     -6.52097388	     33.65976070	     -9.34246191	      1.96589016	     29.99780353	     29.99780353	      9.97533813	    -15.20671247	     12.89565969	     -9.75879600	      5.26324288	      3.91880648	     35.44784713	    -20.25035993	     -9.50010336	     97.81104356	     44.45325465	      0.00000000	      0.00000000	     -5.53648041	     -6.79718734	     -0.60744156	     23.57268864	     45.18480922	      0.00000000	      0.00000000
      6.25800000	     -3.68799934	     -4.49405372	      6.70220133	      1.03159784	      0.92947095	      0.50190276	      6.02127406	      2.68678204	    -16.40024015	     13.50924388	     13.50924388	     12.60988301	     -1.58710490	     -6.59742279	     33.35122137	     -8.86862145	      2.21829665	     27.64326055	     27.64326055	      9.51976718	    -13.72393922	     10.85770690	     -9.94477353	      5.25340191	      4.14725642	     35.85175938	    -20.23354308	     -9.51481017	    100.96153782	     44.40804358	      0.00000000	      0.00000000	     -6.37885152	     -6.79174353	      0.11377280	     24.21624102	     45.06163050	      0.00000000	      0.00000000
      6.27092857	     -3.87309543	     -4.54421527	      6.96639850	      1.03147771	      0.92890104	      0.50048677	      5.75312567	      2.69876968	    -16.56746015	     13.32657896	     13.32657896	     12.82734912	     -1.62765208	     -6.63132389	     33.37952074	     -8.43458542	      2.58858440	     25.83133117	     25.83133117	      9.68511099	    -12.45693762	     10.89151637	     -9.76685748	      5.30915806	      4.21805907	     36.74775753	    -20.08999606	     -9.53711679	    101.73482122	     44.39282795	      0.00000000	      0.00000000	     -6.87214038	     -6.63797752	      0.20786406	     24.04150966	     45.03963978	      0.00000000	      0.00000000
      6.28385714	     -3.83743044	     -4.51077574	      7.18709817	      1.03179176	      0.92867255	      0.49903256	      5.09120429	      2.67556661	    -16.77875690	     12.92378630	     12.92378630	     13.08013963	     -1.33877886	     -6.62858642	     33.09359393	     -8.07447717	      2.51448526	     24.34289555	     24.34289555	      9.83669508	    -11.00520424	     10.61965971	     -9.86129884	      5.27658988	      4.09693283	     37.42615549	    -19.52681836	     -9.29055637	    103.32791613	     44.35102916	      0.00000000	      0.00000000	     -7.46667241	     -6.56940543	      0.39395197	     24.00242295	     45.00452074	      0.00000000	      0.00000000
      6.29678571	     -4.00727063	     -4.61557154	      7.38528734	      1.03208082	      0.92797924	      0.49747543	      4.78846345	      2.74172998	    -16.92452653	     12.74960984	     12.74960984	     13.32221633	     -1.30328392	     -6.66564781	     33.08491841	     -7.78627552	      2.55049453	     23.25822585	     23.25822585	      9.84249149	    -10.21714285	     10.63515602	     -9.60906184	      5.37762830	      4.25331854	     38.01727478	    -19.46117197	     -9.25598453	    103.93496434	     44.33750991	      0.00000000	      0.00000000	     -7.82435133	     -6.46919426	      0.44376717	     23.98394061	     44.99146804	      0.00000000	      0.00000000
      6.30971429	     -4.05230601	     -4.59561798	      7.51025249	      1.03266015	      0.92750276	      0.49585260	      4.25095970	      2.70639512	    -17.00812349	     12.44438361	     12.44438361	     13.58215090	     -1.11672514	     -6.67415529	     32.78830464	     -7.48034472	      2.20319086	     22.36340932	     22.36340932	      9.74593271	     -9.51474045	     10.61113948	     -9.54849595	      5.35080924	      4.31570185	     38.40933698	    -19.10373264	     -9.05348565	    104.83342840	     44.30961462	      0.00000000	      0.00000000	     -8.16674776	     -6.42896918	      0.50079002	     24.01032015	     44.97784559	      0.00000000	      0.00000000
      6.32264286	     -4.11491151	     -4.69984264	      7.65269439	      1.03345765	      0.92661104	      0.49411733	      3.85740520	      2.76705553	    -17.07270534	     12.39461235	     12.39461235	     13.93554332	     -1.16031726	     -6.76260783	     32.76723567	     -7.25414201	      2.02932049	     22.24960562	     22.24960562	      9.62666761	     -9.43307026	     10.64041189	     -9.31377576	      5.41778874	      4.51302705	     38.50973888	    -18.98425431	     -8.98554055	    104.99578554	     44.30351722	      0.00000000	      0.00000000	     -8.32671763	     -6.42313767	      0.50257015	     23.99260556	     44.97497363	      0.00000000	      0.00000000
      6.33557143	     -3.98810428	     -4.70145155	      7.69268784	      1.03474557	      0.92627219	      0.49235341	      2.95102839	      2.76993614	    -17.41953890	     11.84747185	     11.84747185	     14.33014267	     -0.16446351	     -6.30164413	     31.99693871	     -7.12030377	      1.22829976	     21.50913302	     21.50913302	      8.54956022	     -8.97335130	      8.53119426	     -9.48881031	      5.42206798	      4.60694302	     38.40682042	    -18.69095178	     -8.50055887	    107.16460033	     44.28366909	      0.00000000	      0.00000000	     -9.06052323	     -6.59299519	      1.10640363	     25.45292624	     44.89154928	      0.00000000	      0.00000000
      6.34850000	     -4.08795268	     -4.82639213	      7.76018196	      1.03587582	      0.92523679	      0.49045643	      2.59037153	      2.83175020	    -17.42136437	     11.81462134	     11.81462134	     14.65012381	     -0.19527594	     -6.38191194	     31.78705087	     -6.98376774	      0.84490796	     21.56625937	     21.56625937	      8.14706207	     -9.04104314	      8.67155316	     -9.21400127	      5.51460042	      4.73925880	     38.40233132	    -18.54244827	     -8.42908405	    107.22529576	     44.28042795	      0.00000000	      0.00000000	     -9.11646368	     -6.61364515	      1.11486978	     25.44469353	     44.89012033	      0.00000000	      0.00000000
      6.36142857	     -4.04829649	     -4.79829656	      7.68607259	      1.03742606	      0.92458276	      0.48858669	      1.90101087	      2.78013678	    -17.32223758	     11.51551616	     11.51551616	     14.91919676	      0.05811011	     -6.28756620	     31.16244419	     -6.81581259	      0.23634492	     21.48384550	     21.48384550	      7.49899511	     -9.15549271	      8.57539251	     -9.11101673	      5.42809162	      4.77926022	     38.15227244	    -17.93343172	     -8.08294348	    107.55938557	     44.26520037	      0.00000000	      0.00000000	     -9.21300067	     -6.66867187	      1.19900829	     25.55543215	     44.88002841	      0.00000000	      0.00000000
      6.37435714	     -3.98575101	     -4.87204705	      7.64024235	      1.03907623	      0.92378742	      0.48652600	      1.19967136	      2.80423211	    -17.42916942	     11.25874892	     11.25874892	     15.37396081	      0.63598577	     -5.77916151	     30.49041185	     -6.72417795	     -0.16454774	     21.40098659	     21.40098659	      6.25882643	     -9.53937836	      7.19252969	     -9.02920660	      5.46850776	      4.73588215	     37.93766305	    -17.52787311	     -7.60586453	    107.76552751	     44.27204182	      0.00000000	      0.00000000	     -9.50469729	     -6.79984564	      1.44841354	     26.27300065	     44.85329217	      0.00000000	      0.00000000
